<!DOCTYPE svg PUBLIC "-//W3C//DTD SVG 1.1//EN" "http://www.w3.org/Graphics/SVG/1.1/DTD/svg11.dtd">
<!-- Uploaded to: SVG Repo, www.svgrepo.com, Transformed by: SVG Repo Mixer Tools -->
<svg width="48px" height="48px" viewBox="2 2 21 21" fill="none" xmlns="http://www.w3.org/2000/svg">

<g id="SVGRepo_bgCarrier" stroke-width="0"/>

<g id="SVGRepo_tracerCarrier" stroke-linecap="round" stroke-linejoin="round"/>

<g id="SVGRepo_iconCarrier"> <path fill-rule="evenodd" clip-rule="evenodd" d="M12 19.5C16.1421 19.5 19.5 16.1421 19.5 12C19.5 7.85786 16.1421 4.5 12 4.5C7.85786 4.5 4.5 7.85786 4.5 12C4.5 16.1421 7.85786 19.5 12 19.5ZM12 21C16.9706 21 21 16.9706 21 12C21 7.02944 16.9706 3 12 3C7.02944 3 3 7.02944 3 12C3 16.9706 7.02944 21 12 21ZM12.75 15V16.5H11.25V15H12.75ZM10.5 10.4318C10.5 9.66263 11.1497 9 12 9C12.8503 9 13.5 9.66263 13.5 10.4318C13.5 10.739 13.3151 11.1031 12.9076 11.5159C12.5126 11.9161 12.0104 12.2593 11.5928 12.5292L11.25 12.7509V14.25H12.75V13.5623C13.1312 13.303 13.5828 12.9671 13.9752 12.5696C14.4818 12.0564 15 11.3296 15 10.4318C15 8.79103 13.6349 7.5 12 7.5C10.3651 7.5 9 8.79103 9 10.4318H10.5Z" fill="#969696"/> </g>

</svg>