<?xml version="1.0" encoding="UTF-8"?>
<!DOCTYPE svg PUBLIC "-//W3C//DTD SVG 1.1//EN" "http://www.w3.org/Graphics/SVG/1.1/DTD/svg11.dtd">
<svg xmlns="http://www.w3.org/2000/svg" version="1.1" width="48px" height="48px" viewBox="6 10 48 48" style="shape-rendering:geometricPrecision; text-rendering:geometricPrecision; image-rendering:optimizeQuality; fill-rule:evenodd; clip-rule:evenodd" xmlns:xlink="http://www.w3.org/1999/xlink">
<g><path style="opacity:0.79" fill="#969696" d="M 15.5,10.5 C 17.9877,11.7399 19.8211,13.7399 21,16.5C 22.9397,13.5983 25.4397,12.5983 28.5,13.5C 27.2907,19.2475 24.124,23.5809 19,26.5C 18.1802,31.1874 16.1802,35.1874 13,38.5C 12.6667,38.1667 12.3333,37.8333 12,37.5C 11.9822,35.2028 12.1489,32.8695 12.5,30.5C 10.0401,30.3015 7.70674,29.6348 5.5,28.5C 6.97302,26.6053 8.63968,24.9387 10.5,23.5C 4.7921,17.1938 6.12544,15.1938 14.5,17.5C 14.9926,15.1944 15.3259,12.861 15.5,10.5 Z"/></g>
<g><path style="opacity:0.856" fill="#969696" d="M 31.5,16.5 C 36.9781,16.369 42.3114,17.2023 47.5,19C 49.8477,19.3459 51.6811,20.5125 53,22.5C 54.1975,27.9615 55.6975,33.2949 57.5,38.5C 56.3439,43.0035 54.6772,47.3368 52.5,51.5C 49.8122,52.7974 47.3122,52.4641 45,50.5C 44.2797,48.8876 44.4464,47.3876 45.5,46C 39.8051,44.6016 34.1384,43.1016 28.5,41.5C 26.8196,43.0093 24.9862,44.3427 23,45.5C 21.2367,45.0245 19.57,44.3578 18,43.5C 17.9605,38.8428 18.2938,34.1761 19,29.5C 23.3702,25.2978 27.5368,20.9645 31.5,16.5 Z M 33.5,22.5 C 38.3971,22.7243 43.0637,23.8909 47.5,26C 48.5762,27.7261 48.7429,29.5594 48,31.5C 42.9747,29.6175 37.808,28.1175 32.5,27C 31.4186,25.2894 31.752,23.7894 33.5,22.5 Z M 24.5,30.5 C 26.5901,30.4501 27.9234,31.4501 28.5,33.5C 24.6723,35.2523 23.3389,34.2523 24.5,30.5 Z M 49.5,36.5 C 51.9118,36.6941 52.9118,38.0274 52.5,40.5C 47.8308,41.0103 46.8308,39.6769 49.5,36.5 Z"/></g>
</svg>
